<?xml version="1.0" encoding="UTF-8" standalone="no"?>
<!-- Created with Inkscape (http://www.inkscape.org/) -->

<svg
   width="100mm"
   height="100mm"
   viewBox="0 0 100 100"
   version="1.1"
   id="svg5"
   xmlns:inkscape="http://www.inkscape.org/namespaces/inkscape"
   xmlns:sodipodi="http://sodipodi.sourceforge.net/DTD/sodipodi-0.dtd"
   xmlns="http://www.w3.org/2000/svg"
   xmlns:svg="http://www.w3.org/2000/svg">
  <sodipodi:namedview
     id="namedview7"
     pagecolor="#ffffff"
     bordercolor="#000000"
     borderopacity="0.25"
     inkscape:showpageshadow="2"
     inkscape:pageopacity="0.0"
     inkscape:pagecheckerboard="0"
     inkscape:deskcolor="#d1d1d1"
     inkscape:document-units="mm"
     showgrid="false" />
  <defs
     id="defs2">
    <inkscape:path-effect
       effect="powerclip"
       id="path-effect417"
       is_visible="true"
       lpeversion="1"
       inverse="true"
       flatten="false"
       hide_clip="false"
       message="Use fill-rule evenodd on &lt;b&gt;fill and stroke&lt;/b&gt; dialog if no flatten result after convert clip to paths." />
    <clipPath
       clipPathUnits="userSpaceOnUse"
       id="clipPath413">
      <circle
         style="display:none;fill:#800000;stroke-width:0.134029"
         id="circle415"
         cx="103.922"
         cy="61.611141"
         r="25"
         d="m 128.922,61.611141 a 25,25 0 0 1 -25,25 25,25 0 0 1 -25.000003,-25 25,25 0 0 1 25.000003,-25 25,25 0 0 1 25,25 z" />
      <path
         id="lpe_path-effect417"
         style="fill:#800000;stroke-width:0.134029"
         class="powerclip"
         d="M 48.921997,6.6111412 H 158.922 V 116.61114 H 48.921997 Z M 128.922,61.611141 a 25,25 0 0 0 -25,-25 25,25 0 0 0 -25.000003,25 25,25 0 0 0 25.000003,25 25,25 0 0 0 25,-25 z" />
    </clipPath>
  </defs>
  <g
     inkscape:label="Layer 1"
     inkscape:groupmode="layer"
     id="layer1"
     transform="translate(-53.09908,-25.6387)">
    <path
       style="fill:#000080;stroke-width:0.268057"
       id="path352"
       clip-path="url(#clipPath413)"
       inkscape:path-effect="#path-effect417"
       sodipodi:type="arc"
       sodipodi:cx="103.922"
       sodipodi:cy="61.611141"
       sodipodi:rx="50"
       sodipodi:ry="50"
       d="m 153.922,61.611141 a 50,50 0 0 1 -50,49.999999 50,50 0 0 1 -50.000003,-49.999999 50,50 0 0 1 50.000003,-50 50,50 0 0 1 50,50 z"
       transform="translate(-0.822918,14.02756)"
       inkscape:export-filename="o.svg"
       inkscape:export-xdpi="25.4"
       inkscape:export-ydpi="25.4" />
  </g>
</svg>
